<?xml version="1.0" ?><!-- Uploaded to: SVG Repo, www.svgrepo.com, Generator: SVG Repo Mixer Tools -->
<svg fill="#000000" width="800px" height="800px" viewBox="0 0 35 35" data-name="Layer 2" id="bd3bd455-2071-4dad-859d-a7a6b9ec8072" xmlns="http://www.w3.org/2000/svg"><path d="M24.772,29.95H10.236c-1.629,0-2.678-.164-3.506-2.438L5.361,24.46H4.43A4.207,4.207,0,0,1,.25,20.27V9.24A4.194,4.194,0,0,1,4.44,5.05H30.56a4.194,4.194,0,0,1,4.19,4.19V20.27a4.205,4.205,0,0,1-4.172,4.19h-.939l-1.4,3.135A3.635,3.635,0,0,1,24.772,29.95Zm-18.6-7.99a1.25,1.25,0,0,1,1.141.74l1.734,3.874a2.586,2.586,0,0,0,.406.854,6.761,6.761,0,0,0,.784.022H24.772c.6,0,.743-.072,1.225-.96l1.691-3.79a1.251,1.251,0,0,1,1.141-.74H30.57a1.7,1.7,0,0,0,1.68-1.69V9.24a1.692,1.692,0,0,0-1.69-1.69H4.44A1.692,1.692,0,0,0,2.75,9.24V20.27a1.7,1.7,0,0,0,1.688,1.69Z"/><path d="M25.306,16.55H9.693a1.25,1.25,0,0,1,0-2.5H25.306a1.25,1.25,0,0,1,0,2.5Z"/></svg>