<svg xmlns="http://www.w3.org/2000/svg" viewBox="0 0 512 512" role="img" aria-labelledby="title desc">
  <title id="title">e-Plan Editor App Icon</title>
  <desc id="desc">Rounded square background with interlinked harness symbol.</desc>
  <defs>
    <linearGradient id="bg" x1="48" y1="36" x2="464" y2="476" gradientUnits="userSpaceOnUse">
      <stop offset="0" stop-color="#2d4460" />
      <stop offset="0.55" stop-color="#1f3650" />
      <stop offset="1" stop-color="#14283d" />
    </linearGradient>
    <radialGradient id="glow" cx="170" cy="130" r="320" gradientUnits="userSpaceOnUse">
      <stop offset="0" stop-color="#4a6587" stop-opacity="0.5" />
      <stop offset="1" stop-color="#4a6587" stop-opacity="0" />
    </radialGradient>
    <filter id="shadow" x="-20%" y="-20%" width="140%" height="140%">
      <feDropShadow dx="0" dy="10" stdDeviation="12" flood-color="#071320" flood-opacity="0.38" />
    </filter>
  </defs>
  <g filter="url(#shadow)">
    <rect x="16" y="16" width="480" height="480" rx="112" fill="url(#bg)" />
    <rect x="16" y="16" width="480" height="480" rx="112" fill="url(#glow)" />
  </g>
  <g transform="translate(56 56) scale(0.78125)">
    <path fill="#dc73ae" d="M116.364 465.455H23.273C10.418 465.455 0 455.033 0 442.182c0-12.853 10.418-23.273 23.273-23.273h93.091c12.854 0 23.273 10.42 23.273 23.273 0 12.851-10.418 23.273-23.273 23.273z" />
    <path fill="#da50a1" d="M488.727 93.091h-93.091c-12.851 0-23.273-10.418-23.273-23.273 0-12.853 10.422-23.273 23.273-23.273h93.091c12.854 0 23.273 10.42 23.273 23.273 0 12.854-10.418 23.273-23.273 23.273z" />
    <path fill="#5b699c" d="M395.636 465.455H256c-12.851 0-23.273-10.422-23.273-23.273 0-12.853 10.422-23.273 23.273-23.273h139.636c38.501 0 69.818-31.322 69.818-69.818s-31.317-69.818-69.818-69.818H116.364C52.201 279.273 0 227.072 0 162.909S52.201 46.545 116.364 46.545H256c12.854 0 23.273 10.42 23.273 23.273 0 12.854-10.418 23.273-23.273 23.273H116.364c-38.498 0-69.818 31.32-69.818 69.818s31.322 69.818 69.818 69.818h279.273c64.163 0 116.364 52.201 116.364 116.364s-52.201 116.364-116.364 116.364z" />
    <path fill="#2d4175" d="M395.636 232.727H256v46.545h139.636c38.501 0 69.818 31.322 69.818 69.818s-31.317 69.818-69.818 69.818H256V465.453h139.636c64.163 0 116.364-52.201 116.364-116.364s-52.201-116.362-116.364-116.362z" />
    <path fill="#5b699c" d="M256 372.364H116.364c-12.851 0-23.273 10.42-23.273 23.273v93.091c0 12.851 10.422 23.273 23.273 23.273H256c12.854 0 23.273-10.422 23.273-23.273v-93.091c0-12.853-10.418-23.273-23.273-23.273z" />
    <path fill="#2d4175" d="M395.636 0H256c-12.851 0-23.273 10.42-23.273 23.273v93.091c0 12.853 10.422 23.273 23.273 23.273h139.636c12.854 0 23.273-10.42 23.273-23.273V23.273C418.909 10.42 408.491 0 395.636 0z" />
  </g>
</svg>
